<svg width="257" height="58" viewBox="0 0 257 58" fill="none" xmlns="http://www.w3.org/2000/svg">
<path d="M48.8873 31.1931L44.5918 38.659L54.41 54.8181H63.0009L48.8873 31.1931Z" fill="#0769DC"/>
<path d="M40.2955 31.7046L36 24.2387L40.2955 17.0796L44.7955 24.2387L40.2955 31.7046Z" fill="#CD0000"/>
<path d="M35.7955 8.07955L31.2955 0L0 54.5114H28.4318L35.7955 40.7045L31.2955 32.8295L22.9091 46.4318H13.6023L35.7955 8.07955Z" fill="#0769DC"/>
<path d="M68.42 43L80.04 16.225H80.32L91.94 43H86.06L78.64 24.17L82.315 21.65L73.425 43H68.42ZM76.365 33.69H84.1L85.885 37.96H74.79L76.365 33.69ZM118.76 44.05L99.2301 26.41L100.735 27.25L100.84 43H95.6951V16.225H95.9051L115.015 33.795L113.895 33.305L113.79 17.24H118.9V44.05H118.76ZM133.339 17.24C134.949 17.24 136.384 17.45 137.644 17.87C138.904 18.2667 139.954 18.85 140.794 19.62C141.657 20.3667 142.311 21.2767 142.754 22.35C143.197 23.4 143.419 24.59 143.419 25.92C143.419 26.97 143.256 28.02 142.929 29.07C142.626 30.12 142.112 31.0767 141.389 31.94C140.689 32.8033 139.756 33.5033 138.589 34.04C137.422 34.5533 135.976 34.81 134.249 34.81H130.609V43H125.534V17.24H133.339ZM134.214 29.91C134.984 29.91 135.626 29.7817 136.139 29.525C136.652 29.2683 137.049 28.9417 137.329 28.545C137.632 28.1483 137.842 27.74 137.959 27.32C138.099 26.8767 138.169 26.4683 138.169 26.095C138.169 25.815 138.122 25.465 138.029 25.045C137.959 24.6017 137.796 24.1583 137.539 23.715C137.282 23.2717 136.886 22.8983 136.349 22.595C135.836 22.2917 135.136 22.14 134.249 22.14H130.609V29.91H134.214ZM138.974 33.06L145.344 43H139.429L132.919 33.2L138.974 33.06ZM154.128 34.985L144.643 17.24H150.908L157.558 30.61L156.053 30.715L162.598 17.24H168.863L159.203 34.985V43H154.128V34.985ZM170.952 17.24H188.312V22.14H182.047V43H176.972V22.14H170.952V17.24ZM190.746 30.155C190.746 28.3817 191.084 26.7017 191.761 25.115C192.438 23.5283 193.371 22.1283 194.561 20.915C195.774 19.6783 197.174 18.71 198.761 18.01C200.348 17.31 202.051 16.96 203.871 16.96C205.668 16.96 207.359 17.31 208.946 18.01C210.533 18.71 211.933 19.6783 213.146 20.915C214.383 22.1283 215.339 23.5283 216.016 25.115C216.716 26.7017 217.066 28.3817 217.066 30.155C217.066 31.975 216.716 33.6783 216.016 35.265C215.339 36.8517 214.383 38.2517 213.146 39.465C211.933 40.655 210.533 41.5883 208.946 42.265C207.359 42.9417 205.668 43.28 203.871 43.28C202.051 43.28 200.348 42.9417 198.761 42.265C197.174 41.5883 195.774 40.655 194.561 39.465C193.371 38.2517 192.438 36.8517 191.761 35.265C191.084 33.6783 190.746 31.975 190.746 30.155ZM195.996 30.155C195.996 31.2983 196.194 32.3717 196.591 33.375C197.011 34.355 197.583 35.23 198.306 36C199.053 36.7467 199.904 37.33 200.861 37.75C201.841 38.17 202.903 38.38 204.046 38.38C205.143 38.38 206.158 38.17 207.091 37.75C208.048 37.33 208.876 36.7467 209.576 36C210.276 35.23 210.824 34.355 211.221 33.375C211.618 32.3717 211.816 31.2983 211.816 30.155C211.816 28.9883 211.606 27.9033 211.186 26.9C210.789 25.8967 210.229 25.0217 209.506 24.275C208.806 23.505 207.978 22.91 207.021 22.49C206.064 22.07 205.026 21.86 203.906 21.86C202.786 21.86 201.748 22.07 200.791 22.49C199.834 22.91 198.994 23.505 198.271 24.275C197.548 25.0217 196.988 25.8967 196.591 26.9C196.194 27.9033 195.996 28.9883 195.996 30.155ZM245.191 44.05L225.661 26.41L227.166 27.25L227.271 43H222.126V16.225H222.336L241.446 33.795L240.326 33.305L240.221 17.24H245.331V44.05H245.191Z" fill="black"/>
</svg>
